<?xml version="1.0" encoding="UTF-8"?>
<svg xmlns="http://www.w3.org/2000/svg" version="1.1" width="100" height="100" viewBox="0 0 100 100"><rect x="0" y="0" width="100" height="100" fill="#ffffff"/><g transform="scale(3.03)"><g transform="translate(0,0)"><path fill-rule="evenodd" d="M8 0L8 1L9 1L9 2L8 2L8 5L9 5L9 4L11 4L11 5L10 5L10 10L9 10L9 8L8 8L8 9L7 9L7 8L6 8L6 9L4 9L4 8L0 8L0 10L2 10L2 9L3 9L3 12L2 12L2 11L1 11L1 12L0 12L0 14L1 14L1 15L3 15L3 14L5 14L5 13L4 13L4 10L5 10L5 12L6 12L6 13L7 13L7 14L6 14L6 15L4 15L4 16L3 16L3 17L2 17L2 16L1 16L1 17L0 17L0 18L1 18L1 17L2 17L2 19L3 19L3 20L2 20L2 21L4 21L4 23L3 23L3 22L2 22L2 23L1 23L1 24L0 24L0 25L1 25L1 24L3 24L3 25L4 25L4 23L5 23L5 22L6 22L6 23L7 23L7 24L5 24L5 25L8 25L8 26L9 26L9 29L8 29L8 33L9 33L9 30L10 30L10 33L14 33L14 32L13 32L13 30L14 30L14 29L12 29L12 28L14 28L14 27L15 27L15 26L16 26L16 25L17 25L17 27L18 27L18 26L19 26L19 27L21 27L21 28L18 28L18 29L20 29L20 30L21 30L21 29L25 29L25 30L24 30L24 32L25 32L25 33L26 33L26 32L27 32L27 33L28 33L28 32L30 32L30 33L31 33L31 32L30 32L30 29L31 29L31 28L32 28L32 27L31 27L31 26L30 26L30 24L29 24L29 23L28 23L28 24L26 24L26 23L27 23L27 22L28 22L28 21L26 21L26 20L29 20L29 21L30 21L30 22L31 22L31 24L32 24L32 25L33 25L33 24L32 24L32 23L33 23L33 21L31 21L31 20L30 20L30 18L31 18L31 19L32 19L32 20L33 20L33 19L32 19L32 18L33 18L33 16L31 16L31 14L32 14L32 13L30 13L30 14L28 14L28 15L27 15L27 14L26 14L26 13L24 13L24 15L26 15L26 20L25 20L25 17L24 17L24 16L23 16L23 17L22 17L22 15L23 15L23 12L24 12L24 7L25 7L25 2L24 2L24 0L23 0L23 3L22 3L22 4L23 4L23 3L24 3L24 7L23 7L23 5L21 5L21 6L20 6L20 3L21 3L21 2L20 2L20 3L19 3L19 1L20 1L20 0L17 0L17 1L16 1L16 0L12 0L12 1L11 1L11 0L10 0L10 1L9 1L9 0ZM14 1L14 2L11 2L11 4L12 4L12 3L13 3L13 5L12 5L12 6L11 6L11 8L12 8L12 6L13 6L13 8L14 8L14 9L15 9L15 7L16 7L16 6L15 6L15 5L16 5L16 4L17 4L17 3L18 3L18 1L17 1L17 3L16 3L16 1ZM14 3L14 5L13 5L13 6L14 6L14 7L15 7L15 6L14 6L14 5L15 5L15 4L16 4L16 3ZM8 6L8 7L9 7L9 6ZM17 6L17 7L18 7L18 9L16 9L16 10L14 10L14 11L11 11L11 13L10 13L10 14L9 14L9 15L8 15L8 14L7 14L7 15L6 15L6 16L8 16L8 17L11 17L11 18L10 18L10 19L12 19L12 20L11 20L11 21L10 21L10 20L8 20L8 19L9 19L9 18L8 18L8 19L6 19L6 18L7 18L7 17L5 17L5 16L4 16L4 17L3 17L3 18L4 18L4 19L6 19L6 20L7 20L7 21L6 21L6 22L7 22L7 21L8 21L8 22L9 22L9 23L8 23L8 25L9 25L9 24L10 24L10 22L11 22L11 23L14 23L14 22L15 22L15 23L17 23L17 24L19 24L19 25L20 25L20 26L21 26L21 27L23 27L23 28L24 28L24 27L23 27L23 25L22 25L22 24L23 24L23 21L24 21L24 22L25 22L25 23L26 23L26 22L25 22L25 21L24 21L24 18L23 18L23 20L22 20L22 19L21 19L21 20L20 20L20 16L21 16L21 15L20 15L20 16L19 16L19 13L20 13L20 14L22 14L22 12L23 12L23 8L22 8L22 6L21 6L21 7L20 7L20 6L19 6L19 7L18 7L18 6ZM19 8L19 10L18 10L18 12L17 12L17 10L16 10L16 13L15 13L15 12L14 12L14 14L13 14L13 12L12 12L12 13L11 13L11 14L10 14L10 16L12 16L12 17L13 17L13 16L12 16L12 14L13 14L13 15L14 15L14 18L13 18L13 21L15 21L15 19L16 19L16 20L17 20L17 23L18 23L18 20L19 20L19 19L16 19L16 18L17 18L17 16L16 16L16 15L14 15L14 14L16 14L16 13L17 13L17 14L18 14L18 12L20 12L20 11L19 11L19 10L22 10L22 8L21 8L21 9L20 9L20 8ZM25 8L25 10L26 10L26 11L27 11L27 13L29 13L29 12L28 12L28 11L31 11L31 12L32 12L32 11L33 11L33 8L32 8L32 9L31 9L31 8L28 8L28 9L26 9L26 8ZM6 9L6 10L7 10L7 11L6 11L6 12L7 12L7 13L9 13L9 11L8 11L8 10L7 10L7 9ZM11 9L11 10L12 10L12 9ZM28 9L28 10L27 10L27 11L28 11L28 10L31 10L31 11L32 11L32 10L31 10L31 9ZM2 13L2 14L3 14L3 13ZM28 15L28 16L30 16L30 15ZM18 16L18 17L19 17L19 16ZM27 17L27 18L28 18L28 17ZM31 17L31 18L32 18L32 17ZM21 20L21 21L19 21L19 22L20 22L20 24L21 24L21 23L22 23L22 20ZM0 21L0 22L1 22L1 21ZM9 21L9 22L10 22L10 21ZM12 24L12 26L10 26L10 27L11 27L11 28L10 28L10 30L12 30L12 29L11 29L11 28L12 28L12 26L13 26L13 27L14 27L14 26L15 26L15 24ZM13 25L13 26L14 26L14 25ZM25 25L25 28L28 28L28 25ZM26 26L26 27L27 27L27 26ZM29 26L29 29L28 29L28 31L27 31L27 32L28 32L28 31L29 31L29 29L30 29L30 26ZM16 28L16 29L15 29L15 32L16 32L16 30L17 30L17 28ZM26 29L26 30L27 30L27 29ZM32 29L32 30L33 30L33 29ZM11 31L11 32L12 32L12 31ZM17 31L17 33L18 33L18 31ZM25 31L25 32L26 32L26 31ZM32 31L32 32L33 32L33 31ZM19 32L19 33L22 33L22 32ZM0 0L0 7L7 7L7 0ZM1 1L1 6L6 6L6 1ZM2 2L2 5L5 5L5 2ZM26 0L26 7L33 7L33 0ZM27 1L27 6L32 6L32 1ZM28 2L28 5L31 5L31 2ZM0 26L0 33L7 33L7 26ZM1 27L1 32L6 32L6 27ZM2 28L2 31L5 31L5 28Z" fill="#000000"/></g></g></svg>
