<?xml version="1.0" encoding="UTF-8"?>
<svg xmlns="http://www.w3.org/2000/svg" version="1.1" width="100" height="100" viewBox="0 0 100 100"><rect x="0" y="0" width="100" height="100" fill="#ffffff"/><g transform="scale(3.03)"><g transform="translate(0,0)"><path fill-rule="evenodd" d="M10 0L10 2L11 2L11 0ZM12 0L12 1L13 1L13 2L12 2L12 4L13 4L13 3L14 3L14 4L15 4L15 5L17 5L17 6L16 6L16 8L17 8L17 9L19 9L19 10L20 10L20 11L21 11L21 12L22 12L22 13L18 13L18 12L17 12L17 11L18 11L18 10L16 10L16 9L12 9L12 7L13 7L13 5L11 5L11 6L10 6L10 4L11 4L11 3L8 3L8 4L9 4L9 5L8 5L8 7L9 7L9 8L6 8L6 9L7 9L7 10L6 10L6 11L5 11L5 8L0 8L0 9L3 9L3 10L1 10L1 11L2 11L2 13L3 13L3 16L2 16L2 14L1 14L1 15L0 15L0 16L1 16L1 17L0 17L0 19L1 19L1 20L0 20L0 25L1 25L1 22L2 22L2 25L4 25L4 24L5 24L5 25L7 25L7 24L5 24L5 23L4 23L4 22L5 22L5 21L7 21L7 22L6 22L6 23L7 23L7 22L8 22L8 27L9 27L9 24L10 24L10 25L12 25L12 26L13 26L13 27L12 27L12 29L13 29L13 28L14 28L14 29L16 29L16 30L15 30L15 31L14 31L14 32L15 32L15 33L16 33L16 32L17 32L17 33L18 33L18 32L17 32L17 31L19 31L19 30L23 30L23 27L24 27L24 31L23 31L23 32L22 32L22 31L20 31L20 33L21 33L21 32L22 32L22 33L23 33L23 32L24 32L24 33L25 33L25 32L24 32L24 31L27 31L27 32L28 32L28 33L29 33L29 31L30 31L30 32L31 32L31 33L32 33L32 32L31 32L31 31L30 31L30 30L33 30L33 28L32 28L32 26L33 26L33 24L32 24L32 26L31 26L31 25L30 25L30 24L31 24L31 23L32 23L32 22L33 22L33 21L32 21L32 20L31 20L31 19L32 19L32 18L33 18L33 17L32 17L32 16L31 16L31 15L32 15L32 14L33 14L33 13L31 13L31 15L30 15L30 13L29 13L29 10L28 10L28 8L27 8L27 9L26 9L26 8L25 8L25 6L24 6L24 8L23 8L23 6L22 6L22 7L21 7L21 6L20 6L20 8L22 8L22 9L19 9L19 6L18 6L18 5L17 5L17 4L19 4L19 5L22 5L22 4L23 4L23 5L24 5L24 4L25 4L25 3L24 3L24 2L25 2L25 1L24 1L24 0L23 0L23 1L24 1L24 2L22 2L22 1L20 1L20 0L17 0L17 1L16 1L16 0ZM8 1L8 2L9 2L9 1ZM18 1L18 2L16 2L16 4L17 4L17 3L19 3L19 2L20 2L20 1ZM14 2L14 3L15 3L15 2ZM20 3L20 4L22 4L22 3ZM23 3L23 4L24 4L24 3ZM9 6L9 7L10 7L10 6ZM11 6L11 7L12 7L12 6ZM14 6L14 8L15 8L15 6ZM17 6L17 8L18 8L18 6ZM10 8L10 9L8 9L8 10L7 10L7 11L6 11L6 12L5 12L5 11L4 11L4 10L3 10L3 11L4 11L4 14L5 14L5 13L6 13L6 14L7 14L7 15L5 15L5 16L3 16L3 17L1 17L1 19L2 19L2 21L3 21L3 22L4 22L4 21L5 21L5 20L8 20L8 22L9 22L9 23L10 23L10 24L11 24L11 22L13 22L13 23L12 23L12 25L15 25L15 26L16 26L16 27L17 27L17 28L16 28L16 29L17 29L17 30L16 30L16 31L15 31L15 32L16 32L16 31L17 31L17 30L19 30L19 29L17 29L17 28L20 28L20 29L22 29L22 28L21 28L21 27L20 27L20 26L19 26L19 25L22 25L22 26L24 26L24 25L22 25L22 24L19 24L19 25L17 25L17 24L18 24L18 22L19 22L19 23L24 23L24 24L27 24L27 22L25 22L25 21L27 21L27 20L28 20L28 19L26 19L26 18L25 18L25 17L28 17L28 18L29 18L29 17L30 17L30 19L29 19L29 20L30 20L30 21L28 21L28 24L30 24L30 23L29 23L29 22L30 22L30 21L31 21L31 20L30 20L30 19L31 19L31 16L30 16L30 15L29 15L29 13L28 13L28 16L26 16L26 14L25 14L25 13L27 13L27 12L28 12L28 11L27 11L27 10L25 10L25 9L24 9L24 10L23 10L23 9L22 9L22 11L24 11L24 10L25 10L25 11L26 11L26 12L23 12L23 13L24 13L24 14L21 14L21 15L20 15L20 14L19 14L19 15L18 15L18 13L14 13L14 12L15 12L15 11L14 11L14 12L13 12L13 13L12 13L12 11L13 11L13 10L12 10L12 9L11 9L11 8ZM29 8L29 9L30 9L30 8ZM31 8L31 10L33 10L33 9L32 9L32 8ZM10 9L10 11L11 11L11 9ZM8 10L8 11L7 11L7 12L6 12L6 13L7 13L7 14L8 14L8 13L7 13L7 12L8 12L8 11L9 11L9 10ZM30 11L30 12L31 12L31 11ZM0 12L0 13L1 13L1 12ZM9 12L9 15L8 15L8 17L9 17L9 18L8 18L8 19L9 19L9 20L10 20L10 21L11 21L11 20L10 20L10 19L11 19L11 18L10 18L10 17L12 17L12 18L13 18L13 19L12 19L12 21L13 21L13 20L14 20L14 21L16 21L16 22L15 22L15 23L14 23L14 24L15 24L15 25L16 25L16 26L17 26L17 25L16 25L16 24L15 24L15 23L17 23L17 22L18 22L18 21L19 21L19 22L22 22L22 21L23 21L23 22L24 22L24 21L23 21L23 20L24 20L24 19L25 19L25 18L24 18L24 17L25 17L25 16L24 16L24 17L23 17L23 18L21 18L21 17L18 17L18 16L17 16L17 14L15 14L15 15L14 15L14 16L15 16L15 17L12 17L12 15L13 15L13 14L11 14L11 15L10 15L10 13L11 13L11 12ZM19 15L19 16L20 16L20 15ZM21 15L21 16L22 16L22 15ZM6 16L6 17L4 17L4 18L2 18L2 19L4 19L4 20L3 20L3 21L4 21L4 20L5 20L5 19L7 19L7 18L6 18L6 17L7 17L7 16ZM16 16L16 17L15 17L15 18L16 18L16 17L17 17L17 19L14 19L14 20L16 20L16 21L17 21L17 20L20 20L20 21L22 21L22 20L21 20L21 19L20 19L20 18L18 18L18 17L17 17L17 16ZM28 16L28 17L29 17L29 16ZM9 18L9 19L10 19L10 18ZM23 18L23 19L24 19L24 18ZM25 25L25 28L28 28L28 25ZM29 25L29 28L30 28L30 29L32 29L32 28L30 28L30 27L31 27L31 26L30 26L30 25ZM10 26L10 28L11 28L11 26ZM18 26L18 27L19 27L19 26ZM26 26L26 27L27 27L27 26ZM14 27L14 28L15 28L15 27ZM8 28L8 33L12 33L12 31L13 31L13 30L11 30L11 29L10 29L10 31L9 31L9 28ZM25 29L25 30L28 30L28 31L29 31L29 30L28 30L28 29ZM0 0L0 7L7 7L7 0ZM1 1L1 6L6 6L6 1ZM2 2L2 5L5 5L5 2ZM26 0L26 7L33 7L33 0ZM27 1L27 6L32 6L32 1ZM28 2L28 5L31 5L31 2ZM0 26L0 33L7 33L7 26ZM1 27L1 32L6 32L6 27ZM2 28L2 31L5 31L5 28Z" fill="#000000"/></g></g></svg>
