<?xml version="1.0" encoding="UTF-8"?>
<svg xmlns="http://www.w3.org/2000/svg" version="1.1" width="100" height="100" viewBox="0 0 100 100"><rect x="0" y="0" width="100" height="100" fill="#ffffff"/><g transform="scale(3.03)"><g transform="translate(0,0)"><path fill-rule="evenodd" d="M8 0L8 1L9 1L9 2L8 2L8 5L9 5L9 4L11 4L11 5L10 5L10 10L8 10L8 9L9 9L9 8L8 8L8 9L7 9L7 8L6 8L6 9L7 9L7 10L6 10L6 11L5 11L5 12L6 12L6 13L7 13L7 12L6 12L6 11L7 11L7 10L8 10L8 12L9 12L9 13L8 13L8 14L6 14L6 15L7 15L7 16L6 16L6 17L5 17L5 18L4 18L4 16L5 16L5 15L4 15L4 16L3 16L3 15L0 15L0 19L1 19L1 20L0 20L0 22L2 22L2 23L1 23L1 24L0 24L0 25L1 25L1 24L2 24L2 23L3 23L3 24L4 24L4 25L7 25L7 24L8 24L8 21L7 21L7 20L5 20L5 21L3 21L3 22L2 22L2 19L3 19L3 20L4 20L4 19L8 19L8 20L9 20L9 22L10 22L10 24L11 24L11 25L8 25L8 26L10 26L10 27L9 27L9 29L8 29L8 33L10 33L10 32L9 32L9 31L12 31L12 32L11 32L11 33L14 33L14 32L13 32L13 30L14 30L14 29L12 29L12 28L14 28L14 27L15 27L15 26L16 26L16 27L18 27L18 29L20 29L20 30L21 30L21 29L25 29L25 30L24 30L24 32L25 32L25 33L26 33L26 32L27 32L27 33L28 33L28 32L30 32L30 33L31 33L31 32L30 32L30 29L31 29L31 28L32 28L32 27L31 27L31 26L30 26L30 24L29 24L29 23L28 23L28 24L26 24L26 23L27 23L27 22L28 22L28 21L26 21L26 20L29 20L29 21L30 21L30 22L31 22L31 24L32 24L32 25L33 25L33 24L32 24L32 23L33 23L33 21L31 21L31 20L30 20L30 18L31 18L31 19L32 19L32 20L33 20L33 19L32 19L32 18L33 18L33 16L31 16L31 14L32 14L32 13L30 13L30 14L28 14L28 15L27 15L27 14L26 14L26 13L24 13L24 15L26 15L26 20L25 20L25 17L24 17L24 16L23 16L23 17L22 17L22 15L23 15L23 12L24 12L24 7L25 7L25 2L24 2L24 0L23 0L23 3L22 3L22 4L23 4L23 3L24 3L24 7L23 7L23 5L21 5L21 6L20 6L20 3L21 3L21 2L20 2L20 3L19 3L19 1L20 1L20 0L17 0L17 1L16 1L16 0L12 0L12 1L11 1L11 0L10 0L10 1L9 1L9 0ZM14 1L14 2L11 2L11 4L12 4L12 3L13 3L13 5L12 5L12 6L11 6L11 8L12 8L12 6L13 6L13 8L14 8L14 9L15 9L15 7L16 7L16 6L15 6L15 5L16 5L16 4L17 4L17 3L18 3L18 1L17 1L17 3L16 3L16 1ZM14 3L14 5L13 5L13 6L14 6L14 7L15 7L15 6L14 6L14 5L15 5L15 4L16 4L16 3ZM8 6L8 7L9 7L9 6ZM17 6L17 7L18 7L18 9L16 9L16 10L14 10L14 11L11 11L11 13L10 13L10 15L11 15L11 13L12 13L12 12L13 12L13 14L12 14L12 16L10 16L10 18L11 18L11 19L10 19L10 20L11 20L11 21L10 21L10 22L11 22L11 23L14 23L14 22L15 22L15 24L12 24L12 26L11 26L11 27L10 27L10 28L12 28L12 26L13 26L13 27L14 27L14 26L15 26L15 24L16 24L16 23L17 23L17 24L19 24L19 25L20 25L20 26L21 26L21 27L19 27L19 26L18 26L18 27L19 27L19 28L21 28L21 27L23 27L23 28L24 28L24 27L23 27L23 25L22 25L22 24L23 24L23 21L24 21L24 22L25 22L25 23L26 23L26 22L25 22L25 21L24 21L24 18L23 18L23 20L22 20L22 19L21 19L21 20L20 20L20 16L21 16L21 15L20 15L20 16L19 16L19 13L20 13L20 14L22 14L22 12L23 12L23 8L22 8L22 6L21 6L21 7L20 7L20 6L19 6L19 7L18 7L18 6ZM0 8L0 14L1 14L1 10L2 10L2 12L4 12L4 10L5 10L5 9L4 9L4 8ZM19 8L19 10L18 10L18 12L17 12L17 11L16 11L16 13L15 13L15 12L14 12L14 14L13 14L13 15L14 15L14 18L13 18L13 21L15 21L15 20L16 20L16 22L17 22L17 23L18 23L18 20L19 20L19 19L17 19L17 20L16 20L16 17L15 17L15 16L16 16L16 15L14 15L14 14L16 14L16 13L17 13L17 14L18 14L18 12L20 12L20 11L19 11L19 10L22 10L22 8L21 8L21 9L20 9L20 8ZM25 8L25 10L26 10L26 11L27 11L27 13L29 13L29 12L28 12L28 11L31 11L31 12L32 12L32 11L33 11L33 8L32 8L32 9L31 9L31 8L28 8L28 9L26 9L26 8ZM11 9L11 10L12 10L12 9ZM28 9L28 10L27 10L27 11L28 11L28 10L31 10L31 11L32 11L32 10L31 10L31 9ZM2 13L2 14L3 14L3 13ZM4 13L4 14L5 14L5 13ZM8 15L8 16L9 16L9 15ZM28 15L28 16L30 16L30 15ZM1 16L1 17L2 17L2 16ZM12 16L12 17L13 17L13 16ZM18 16L18 17L19 17L19 16ZM6 17L6 18L8 18L8 19L9 19L9 18L8 18L8 17ZM27 17L27 18L28 18L28 17ZM31 17L31 18L32 18L32 17ZM1 18L1 19L2 19L2 18ZM3 18L3 19L4 19L4 18ZM11 19L11 20L12 20L12 19ZM21 20L21 21L19 21L19 22L20 22L20 24L21 24L21 23L22 23L22 20ZM6 21L6 22L5 22L5 24L7 24L7 23L6 23L6 22L7 22L7 21ZM3 22L3 23L4 23L4 22ZM13 25L13 26L14 26L14 25ZM16 25L16 26L17 26L17 25ZM25 25L25 28L28 28L28 25ZM26 26L26 27L27 27L27 26ZM29 26L29 29L28 29L28 31L27 31L27 32L28 32L28 31L29 31L29 29L30 29L30 26ZM9 29L9 30L10 30L10 29ZM11 29L11 30L12 30L12 29ZM15 29L15 32L16 32L16 29ZM26 29L26 30L27 30L27 29ZM32 29L32 30L33 30L33 29ZM17 31L17 33L18 33L18 32L19 32L19 33L22 33L22 32L19 32L19 31ZM25 31L25 32L26 32L26 31ZM32 31L32 32L33 32L33 31ZM0 0L0 7L7 7L7 0ZM1 1L1 6L6 6L6 1ZM2 2L2 5L5 5L5 2ZM26 0L26 7L33 7L33 0ZM27 1L27 6L32 6L32 1ZM28 2L28 5L31 5L31 2ZM0 26L0 33L7 33L7 26ZM1 27L1 32L6 32L6 27ZM2 28L2 31L5 31L5 28Z" fill="#000000"/></g></g></svg>
